<?xml version="1.0" standalone="no"?>
<!DOCTYPE svg PUBLIC "-//W3C//DTD SVG 20010904//EN"
 "http://www.w3.org/TR/2001/REC-SVG-20010904/DTD/svg10.dtd">
<svg version="1.0" xmlns="http://www.w3.org/2000/svg"
 width="475.000000pt" height="332.000000pt" viewBox="0 0 475.000000 332.000000"
 preserveAspectRatio="xMidYMid meet">

<g transform="translate(0.000000,332.000000) scale(0.100000,-0.100000)"
fill="#000000" stroke="none">
<path d="M2160 2618 c-107 -61 -235 -134 -285 -162 l-90 -52 1 -75 c0 -40 1
-194 2 -340 l2 -266 263 -151 c144 -82 276 -157 293 -165 30 -16 31 -15 204
84 95 54 177 104 182 111 4 7 8 157 8 334 0 293 -2 322 -17 337 -23 20 -176
108 -276 158 l-77 39 -48 -24 c-99 -50 -278 -158 -294 -178 -16 -18 -18 -43
-18 -207 0 -102 4 -191 8 -198 10 -15 319 -192 349 -199 15 -4 42 6 83 31 l60
36 0 196 0 195 -29 27 c-16 15 -47 35 -69 45 -38 17 -40 17 -81 -3 -22 -12
-41 -25 -41 -30 0 -5 27 -26 60 -46 l61 -37 -3 -145 c-3 -120 -6 -148 -19
-156 -12 -7 -46 8 -145 64 l-129 74 0 150 0 149 70 41 c39 23 97 56 130 74
l60 33 130 -74 130 -74 3 -277 2 -277 -52 -33 c-70 -45 -203 -117 -214 -117
-10 0 -437 240 -472 265 l-22 16 2 277 3 277 175 101 c96 55 207 117 246 138
l71 39 244 -139 244 -139 3 -328 c3 -360 0 -347 63 -310 l29 17 0 337 c0 257
-3 339 -12 347 -43 35 -560 322 -579 322 -8 -1 -102 -51 -209 -112z"/>
</g>
</svg>
